<!-- Generated by IcoMoon.io -->
<svg version="1.1" xmlns="http://www.w3.org/2000/svg" width="24" height="24" viewBox="0 0 24 24">
<title>basketball</title>
<path fill="#fff" d="M12 0c-6.627 0-12 5.373-12 12s5.373 12 12 12c6.627 0 12-5.373 12-12s-5.373-12-12-12zM17.52 2.7c1.75 1.058 3.147 2.541 4.071 4.31-2.109-1.578-4.678-2.768-7.475-3.321 0.030-0.347 0.264-0.613 0.556-0.795 0.503-0.228 1.081-0.358 1.69-0.358 0.412 0 0.811 0.060 1.187 0.171zM11.25 1.21h0.75c0.996 0 1.96 0.135 2.876 0.388-0.362 0.069-0.61 0.181-0.841 0.32-0.587 0.366-1.037 0.936-1.25 1.611-0.296-0.002-0.634-0.015-0.976-0.015s-0.68 0.013-1.015 0.038c0.154-0.915 0.298-1.711 0.484-2.489zM10 1.37c-0.12 0.54-0.27 1.31-0.39 2.29-0.771 0.129-1.444 0.299-2.095 0.518-0.024-0.566-0.325-1.020-0.739-1.334-0.083-0.057-0.172-0.107-0.264-0.15 0.996-0.613 2.17-1.072 3.421-1.314zM5.14 3.64c0.113-0.058 0.247-0.091 0.388-0.091 0.239 0 0.455 0.096 0.612 0.252 0.208 0.196 0.352 0.458 0.399 0.752-1.622 0.701-3.019 1.588-4.247 2.663 0.727-1.423 1.679-2.608 2.83-3.561zM2.78 17.64c-1.005-1.608-1.601-3.56-1.601-5.652 0-0.897 0.11-1.769 0.316-2.602l-0.016-0.026c1.411-1.423 3.065-2.604 4.895-3.475-0.22 1.45-0.854 2.762-1.73 3.875-1.223 1.798-1.962 4.043-1.962 6.46 0 0.5 0.032 0.993 0.093 1.477zM12 22.82c-0 0-0.001 0-0.002 0-2.767 0-5.291-1.044-7.198-2.759-2.52-4.821 0.85-9.581 0.89-9.631 1.061-1.307 1.795-2.92 2.054-4.687 0.006-0.173 0.006-0.283 0.006-0.393 0.476-0.175 1.056-0.338 1.652-0.457 0.016 0.868-0.020 1.896-0.020 2.932 0 5.379 0.96 10.533 2.717 15.302zM19.5 19.82c-1.641 1.607-3.797 2.695-6.197 2.995-1.736-4.436-2.711-9.571-2.711-14.934 0-1.077 0.039-2.145 0.117-3.202 0.275 0.118 0.604 0.104 0.937 0.104s0.662 0.013 0.988 0.040c-0.043 1.067 0.317 3.317 2.827 5.687v0c0.080-0.060 5.29 4.55 4.040 9.28zM16.27 9.52c-1.377-1.141-2.302-2.787-2.488-4.651 3.369 0.671 6.306 2.204 8.684 4.346 0.221 0.831 0.358 1.802 0.358 2.805 0 2.314-0.728 4.457-1.968 6.214-0.027-4.634-4.277-8.444-4.587-8.714z"></path>
</svg>
