<!-- Generated by IcoMoon.io -->
<svg version="1.1" xmlns="http://www.w3.org/2000/svg" width="24" height="24" viewBox="0 0 24 24">
<title>football</title>
<path fill="#fff" d="M12 0c-6.627 0-12 5.373-12 12s5.373 12 12 12c6.627 0 12-5.373 12-12s-5.373-12-12-12zM18.82 3.6c1.136 0.92 2.061 2.052 2.723 3.342-0.453-0.222-1.693-0.782-1.813-0.822s-3.52-4-3.51-4.080c0.997 0.436 1.857 0.969 2.629 1.605zM10.45 22.6h-0.31c-0.34-0.080-1.26-0.3-1.92-0.52l-0.3-0.080 3 0.54 0.48 0.24c-0.29-0.040-0.61-0.070-0.94-0.12zM11.040 21.7l-5.22-0.93-0.12-0.090c-0.755-0.873-1.421-1.858-1.961-2.917l2.051-3.363 4.33 0.86 2.5 4.33c-0.44 0.68-1.48 2.080-1.57 2.18zM2.62 7c0.1-0.28 0.21-0.55 0.32-0.82 1.395-2.14 3.475-3.734 5.923-4.48 0.753 0.274 1.335 0.608 1.874 0.999l-1.397 4.001c-0.28 0.11-0.56 0.22-0.83 0.34-1.269 0.564-2.343 1.152-3.362 1.816l-2.578-1.636c0.007-0.081 0.025-0.156 0.052-0.226zM15.54 2.55l3.58 4c-0.12 0.45-0.91 2.52-1.18 3.18l-5.2 0.53c-0.060-0.080-2.52-2.83-2.77-3.080l1.45-4.36c1.224-0.172 2.638-0.27 4.075-0.27 0.016 0 0.031 0 0.047 0zM10.68 14.81c0.4-0.74 1.72-3.26 2-3.77l5.32-0.55c0.753 1.016 1.456 2.166 2.052 3.378l-2.522 4.952c-1.264 0.251-2.721 0.4-4.212 0.41zM20.85 14.25c0.716-0.317 1.323-0.651 1.899-1.030-0.563 2.804-1.905 5.204-3.804 7.026l-0.004 0.004c-0.14 0.12-0.29 0.22-0.44 0.33-0.089-0.523-0.2-0.974-0.34-1.412zM1.22 12c0.003-1.393 0.271-2.723 0.755-3.943 0.035-0.017 0.105-0.117 0.175-0.207l2.7 1.6v0.070c-0 0.030-0 0.065-0 0.1 0 1.49 0.157 2.944 0.454 4.346l-0.024-0.136-2.1 3.28s-0.75-0.5-1-0.74c-0.597-1.283-0.949-2.784-0.96-4.366z"></path>
</svg>
