<!-- Generated by IcoMoon.io -->
<svg version="1.1" xmlns="http://www.w3.org/2000/svg" width="24" height="24" viewBox="0 0 24 24">
<title>handball</title>
<path fill="#fff" d="M12 0c-6.627 0-12 5.373-12 12s5.373 12 12 12c6.627 0 12-5.373 12-12s-5.373-12-12-12zM22.24 8.7l-1.44 2.5c-0.131 0.2-0.348 0.334-0.598 0.35l-3.132 0c-0.252-0.016-0.469-0.15-0.598-0.347l-1.562-2.703c-0.051-0.101-0.082-0.219-0.082-0.345s0.030-0.245 0.084-0.349l1.558-2.696c0.131-0.2 0.348-0.334 0.598-0.35l2.872-0c1.007 1.095 1.793 2.411 2.278 3.864zM15.7 12.34l-1.55 2.66c-0.131 0.2-0.348 0.334-0.598 0.35l-3.132 0c-0.252-0.016-0.469-0.15-0.598-0.347l-1.562-2.703c-0.051-0.101-0.082-0.219-0.082-0.345s0.030-0.245 0.084-0.349l1.558-2.696c0.131-0.2 0.348-0.334 0.598-0.35l3.122-0c0.252 0.016 0.469 0.15 0.598 0.347l1.562 2.703c0.061 0.108 0.097 0.237 0.097 0.374 0 0.13-0.032 0.252-0.089 0.36zM19 3.87h-2c-0.252-0.014-0.47-0.149-0.598-0.347l-1.002-1.703c1.388 0.474 2.586 1.172 3.614 2.061zM12 1.23c0.812 0.002 1.602 0.093 2.362 0.264l1.348 2.506c0.051 0.101 0.082 0.219 0.082 0.345s-0.030 0.244-0.084 0.349l-1.558 2.696c-0.131 0.2-0.348 0.334-0.598 0.35l-3.132 0c-0.252-0.016-0.469-0.15-0.598-0.347l-1.562-2.733c-0.051-0.101-0.082-0.219-0.082-0.345s0.030-0.244 0.084-0.349l1.438-2.496c0.681-0.153 1.463-0.24 2.265-0.24 0.012 0 0.024 0 0.036 0zM8.49 1.83l-1 1.7c-0.13 0.201-0.348 0.336-0.598 0.35l-2.002 0c1.008-0.88 2.199-1.581 3.505-2.037zM4 4.75h2.89c0.252 0.016 0.469 0.15 0.598 0.347l1.562 2.703c0.051 0.101 0.082 0.219 0.082 0.345s-0.030 0.245-0.084 0.349l-1.558 2.706c-0.131 0.2-0.348 0.334-0.598 0.35l-3.122 0c-0.252-0.016-0.469-0.15-0.598-0.347l-1.452-2.503c0.499-1.532 1.28-2.851 2.288-3.959zM1.2 12c0.002-0.741 0.079-1.463 0.222-2.16l0.988 1.8c0.051 0.101 0.082 0.219 0.082 0.345s-0.030 0.245-0.084 0.349l-0.998 1.726c-0.129-0.617-0.206-1.329-0.21-2.057zM1.72 15.29l1.45-2.52c0.131-0.2 0.348-0.334 0.598-0.35l3.122-0c0.252 0.016 0.469 0.15 0.598 0.347l1.562 2.703c0.051 0.101 0.082 0.219 0.082 0.345s-0.030 0.245-0.084 0.349l-1.558 2.696c-0.131 0.2-0.348 0.334-0.598 0.35l-2.892 0c-0.996-1.088-1.776-2.393-2.258-3.834zM4.89 20.11h2c0.252 0.016 0.469 0.15 0.598 0.347l1.002 1.743c-1.389-0.483-2.587-1.191-3.612-2.091zM14.24 22.54c-0.679 0.153-1.459 0.241-2.26 0.241s-1.581-0.088-2.331-0.255l0.071 0.013-1.46-2.54c-0.051-0.101-0.082-0.219-0.082-0.345s0.030-0.244 0.084-0.349l1.558-2.696c0.131-0.2 0.348-0.334 0.598-0.35l3.122-0c0.252 0.016 0.469 0.15 0.598 0.347l1.562 2.703c0.051 0.101 0.082 0.219 0.082 0.345s-0.030 0.245-0.084 0.349l-1.448 2.516zM15.47 22.19l1-1.74c0.131-0.2 0.348-0.334 0.598-0.35l2.002-0c-1.012 0.897-2.21 1.611-3.525 2.077zM19.98 19.19h-2.9c-0.252-0.016-0.469-0.15-0.598-0.347l-1.562-2.703c-0.051-0.101-0.082-0.219-0.082-0.345s0.030-0.244 0.084-0.349l1.558-2.696c0.131-0.2 0.348-0.334 0.598-0.35l3.122-0c0.252 0.016 0.469 0.15 0.598 0.347l1.452 2.523c-0.489 1.534-1.26 2.857-2.259 3.97zM21.57 12.3c-0.051-0.101-0.082-0.219-0.082-0.345s0.030-0.245 0.084-0.349l0.998-1.716c0.13 0.624 0.204 1.341 0.204 2.075s-0.074 1.451-0.216 2.144z"></path>
</svg>
