<!-- Generated by IcoMoon.io -->
<svg version="1.1" xmlns="http://www.w3.org/2000/svg" width="24" height="24" viewBox="0 0 24 24">
<title>ice-hockey</title>
<path fill="#fff" d="M5.63 6.78c0.030 0.007 0.065 0.011 0.1 0.011s0.070-0.004 0.103-0.011c0.471-0.226 1.036-0.437 1.62-0.601 0.302-0.055 0.472-0.249 0.472-0.482 0-0.26-0.21-0.47-0.47-0.47-0.063 0-0.124 0.013-0.179 0.035-0.713 0.196-1.324 0.424-1.909 0.699-0.083 0.049-0.187 0.207-0.187 0.39 0 0.256 0.204 0.464 0.459 0.47z"></path>
<path fill="#fff" d="M12.050 12.8c-5.080 0-8.5-1.88-8.5-3.63 0.027-0.414 0.193-0.786 0.451-1.072 0.033-0.062 0.054-0.138 0.054-0.219 0-0.26-0.21-0.47-0.47-0.47-0.126 0-0.241 0.050-0.325 0.13-0.359 0.442-0.58 1.009-0.59 1.628-0 1.292 1 2.472 2.9 3.322 1.835 0.786 3.97 1.243 6.212 1.243 0.112 0 0.224-0.001 0.335-0.003 0.212-0.034 0.385-0.229 0.385-0.465s-0.173-0.43-0.399-0.465z"></path>
<path fill="#fff" d="M20.35 4.34c-2.321-1.169-5.059-1.854-7.957-1.854-0.138 0-0.276 0.002-0.413 0.005-0.079-0.002-0.197-0.003-0.315-0.003-2.897 0-5.634 0.684-8.059 1.9-2.226 1.193-3.506 2.883-3.506 4.713v5.14c0 1.83 1.28 3.52 3.61 4.76 2.316 1.163 5.046 1.843 7.935 1.843 0.125 0 0.249-0.001 0.373-0.004 0.104 0.003 0.249 0.005 0.394 0.005 2.89 0 5.621-0.681 8.042-1.892 2.216-1.203 3.546-2.893 3.546-4.723v-5.13c0-1.83-1.33-3.52-3.65-4.76zM22.81 14.11c0 1.39-1.080 2.73-3 3.76-2.151 1.056-4.681 1.674-7.356 1.674-0.128 0-0.256-0.001-0.383-0.004-0.089 0.003-0.217 0.004-0.345 0.004-2.675 0-5.205-0.618-7.456-1.718-1.9-0.956-2.9-2.316-2.9-3.716v-2.11c0.675 0.748 1.472 1.37 2.364 1.838 2.366 1.19 5.103 1.874 7.999 1.874 0.094 0 0.188-0.001 0.282-0.002 0.094 0.003 0.222 0.004 0.35 0.004 2.897 0 5.635-0.685 8.060-1.901 0.856-0.451 1.671-1.090 2.349-1.854zM19.81 12.93c-2.151 1.056-4.681 1.674-7.356 1.674-0.128 0-0.256-0.001-0.383-0.004-0.089 0.003-0.217 0.004-0.345 0.004-2.675 0-5.205-0.618-7.456-1.718-1.9-0.956-2.9-2.316-2.9-3.716s1.080-2.73 3-3.76c2.151-1.056 4.681-1.674 7.356-1.674 0.128 0 0.256 0.001 0.383 0.004 0.093-0.003 0.226-0.005 0.358-0.005 2.67 0 5.196 0.618 7.443 1.718 1.9 0.956 2.9 2.316 2.9 3.716s-1.080 2.73-3.040 3.76z"></path>
</svg>
