<!-- Generated by IcoMoon.io -->
<svg version="1.1" xmlns="http://www.w3.org/2000/svg" width="24" height="24" viewBox="0 0 24 24">
<title>tennis</title>
<path fill="#fff" d="M21.794 5.213c-1.772-2.556-4.468-4.363-7.596-4.941-0.694-0.126-1.409-0.192-2.14-0.192-6.589 0-11.93 5.341-11.93 11.93 0 6.579 5.325 11.914 11.9 11.93h0.002c6.569-0.033 11.881-5.366 11.881-11.94 0-2.538-0.792-4.891-2.142-6.826zM2.446 7.138c0.265 1.705 0.752 3.239 1.436 4.66 0.666 1.25 1.096 2.842 1.13 4.532-0.064 1.203-0.268 2.323-0.597 3.387-1.592-1.689-2.701-3.793-3.035-6.147-0.068-0.493-0.104-0.998-0.104-1.511 0-1.795 0.432-3.489 1.199-4.983zM12.030 22.717c-0.027 0-0.059 0-0.091 0-0.676 0-1.338-0.062-1.98-0.181-1.692-0.304-3.247-1.009-4.561-2.014 0.451-1.189 0.731-2.585 0.806-4.035-0.021-1.933-0.493-3.713-1.312-5.284-0.813-1.543-1.309-3.447-1.309-5.467 0-0.135 0.002-0.269 0.007-0.403 1.971-2.434 4.971-3.991 8.334-3.991 0.006 0 0.011 0 0.017 0 0.688 0.002 1.36 0.067 2.012 0.191 2.803 0.522 5.221 2.146 6.787 4.405 0.261 0.337 0.5 0.677 0.718 1.031 0.027 1.33-1.868 2.483-3.191 2.874-6.135 1.794-7.529 5.714-7.619 8.692 0.005 1.574 0.523 3.027 1.397 4.199zM22.546 13.925c-0.846 4.526-4.447 8.011-8.964 8.675-1.054-1.036-1.675-2.445-1.702-3.998 0.11-3.745 2.376-6.291 6.747-7.574 1.209-0.331 2.245-0.951 3.067-1.784 0.172-0.183 0.331-0.383 0.472-0.596 0.347 0.976 0.541 2.119 0.541 3.307 0 0.689-0.065 1.364-0.19 2.017z"></path>
</svg>
