<svg height="150" viewBox="0 0 500 150" width="500" xmlns="http://www.w3.org/2000/svg"><path d="m464.725 0h-429.431c-1.357 0-2.7 0-4.052.007-1.133.008-2.257.029-3.4.047a48.985 48.985 0 0 0 -7.417.654 24.683 24.683 0 0 0 -7.037 2.321 23.824 23.824 0 0 0 -5.994 4.364 23.154 23.154 0 0 0 -4.361 6 24.449 24.449 0 0 0 -2.314 7.046 48.122 48.122 0 0 0 -.663 7.411c-.034 1.135-.038 2.273-.056 3.408v87.494c.018 1.15.022 2.263.056 3.413a48.122 48.122 0 0 0 .663 7.411 24.407 24.407 0 0 0 2.314 7.049 22.963 22.963 0 0 0 4.361 5.975 23.221 23.221 0 0 0 5.992 4.363 24.809 24.809 0 0 0 7.037 2.336 49.77 49.77 0 0 0 7.417.654c1.145.025 2.269.04 3.4.04 1.354.007 2.695.007 4.052.007h429.433c1.331 0 2.683 0 4.013-.007 1.128 0 2.285-.015 3.413-.04a49.121 49.121 0 0 0 7.4-.654 25.19 25.19 0 0 0 7.064-2.336 23.225 23.225 0 0 0 5.985-4.363 23.646 23.646 0 0 0 4.374-5.975 24.454 24.454 0 0 0 2.292-7.049 50.1 50.1 0 0 0 .687-7.411c.014-1.15.014-2.263.014-3.413.029-1.344.029-2.682.029-4.049v-79.403c0-1.356 0-2.7-.029-4.042 0-1.135 0-2.273-.014-3.408a50.1 50.1 0 0 0 -.687-7.411 24.5 24.5 0 0 0 -2.292-7.046 23.949 23.949 0 0 0 -10.36-10.364 25.06 25.06 0 0 0 -7.06-2.321 48.354 48.354 0 0 0 -7.4-.654c-1.128-.018-2.285-.039-3.413-.047-1.333-.007-2.685-.007-4.016-.007z" fill="#b6b6b6"/><path d="m31.26 146.761c-1.128 0-2.228-.014-3.347-.04a46.957 46.957 0 0 1 -6.919-.6 21.791 21.791 0 0 1 -6.133-2.028 20.009 20.009 0 0 1 -5.171-3.764 19.676 19.676 0 0 1 -3.778-5.169 21.175 21.175 0 0 1 -2.01-6.135 45.936 45.936 0 0 1 -.616-6.94c-.024-.781-.054-3.38-.054-3.38v-87.447s.032-2.559.054-3.311a45.732 45.732 0 0 1 .613-6.93 21.328 21.328 0 0 1 2.011-6.152 19.886 19.886 0 0 1 3.758-5.175 20.586 20.586 0 0 1 5.191-3.785 21.581 21.581 0 0 1 6.12-2.014 46.685 46.685 0 0 1 6.943-.607l3.34-.045h437.458l3.38.047a45.823 45.823 0 0 1 6.879.6 21.972 21.972 0 0 1 6.185 2.028 20.691 20.691 0 0 1 8.94 8.958 21.338 21.338 0 0 1 1.981 6.1 48.052 48.052 0 0 1 .643 6.986c.011 1.049.011 2.175.011 3.295.029 1.389.029 2.71.029 4.042v79.4c0 1.345 0 2.658-.029 3.981 0 1.2 0 2.306-.014 3.441a47.153 47.153 0 0 1 -.633 6.861 21.243 21.243 0 0 1 -2 6.182 20.276 20.276 0 0 1 -3.759 5.13 20.071 20.071 0 0 1 -5.18 3.785 21.742 21.742 0 0 1 -6.175 2.035 46.422 46.422 0 0 1 -6.919.6c-1.084.026-2.22.04-3.322.04l-4.013.007z"/><g fill="#fff"><path d="m185.585 101.258h-17.559l-4.299 11.742h-7.719l17.192-43.862h7.3l17.588 43.862h-8.113zm-15.349-5.964h13.109l-4.693-12.564q-.969-2.6-1.907-5.752-.847 2.787-1.847 5.692z"/><path d="m201.2 88.331q0-3.633-.243-7.992h7.024a34.856 34.856 0 0 1 .545 4.147 13.236 13.236 0 0 1 9.99-4.753 11.264 11.264 0 0 1 10.55 6.857 20.854 20.854 0 0 1 1.711 9.037 22.375 22.375 0 0 1 -1.953 9.778 13.977 13.977 0 0 1 -5.464 6.146 15.572 15.572 0 0 1 -8.113 2.089 19.992 19.992 0 0 1 -6.57-1.12v13.5l-7.477.635zm19.662 16.7q2.286-3.074 2.286-8.976 0-5.48-1.892-7.948a6.037 6.037 0 0 0 -5.041-2.466 8.133 8.133 0 0 0 -4.026 1.029 15.175 15.175 0 0 0 -3.512 2.755v17.5a11.379 11.379 0 0 0 2.6.862 13.916 13.916 0 0 0 2.936.319 7.771 7.771 0 0 0 6.648-3.079z"/><path d="m235.313 88.331q0-3.633-.242-7.992h7.029a34.856 34.856 0 0 1 .545 4.147 13.236 13.236 0 0 1 9.99-4.753 11.267 11.267 0 0 1 10.551 6.857 20.884 20.884 0 0 1 1.71 9.037 22.389 22.389 0 0 1 -1.953 9.778 13.983 13.983 0 0 1 -5.464 6.146 15.576 15.576 0 0 1 -8.114 2.089 19.99 19.99 0 0 1 -6.569-1.12v13.5l-7.478.635zm19.663 16.7q2.286-3.074 2.286-8.976 0-5.48-1.892-7.948a6.037 6.037 0 0 0 -5.041-2.466 8.133 8.133 0 0 0 -4.026 1.029 15.175 15.175 0 0 0 -3.512 2.755v17.5a11.386 11.386 0 0 0 2.6.862 13.918 13.918 0 0 0 2.937.319 7.772 7.772 0 0 0 6.648-3.079z"/><path d="m278.627 110.93a18.141 18.141 0 0 1 -7.447-7.674 25.205 25.205 0 0 1 -2.6-11.807 24.609 24.609 0 0 1 3-12.549 19.292 19.292 0 0 1 8.158-7.749 25.469 25.469 0 0 1 11.58-2.589 30.574 30.574 0 0 1 7.221.833 31.245 31.245 0 0 1 6.4 2.286l-1.908 5.752a26.449 26.449 0 0 0 -11.383-2.846 15.921 15.921 0 0 0 -8.006 1.953 13.275 13.275 0 0 0 -5.344 5.736 20.127 20.127 0 0 0 -1.907 9.143 22.093 22.093 0 0 0 1.467 8.325 12.3 12.3 0 0 0 4.633 5.752 14.034 14.034 0 0 0 7.977 2.119 26.49 26.49 0 0 0 4.359-.363 22.759 22.759 0 0 0 4.087-1.06v-8.87h-10.145v-5.812h17.407v18.467a38.894 38.894 0 0 1 -7.886 2.694 37.064 37.064 0 0 1 -8.22.938 23.266 23.266 0 0 1 -11.443-2.679z"/><path d="m332.748 113a28.59 28.59 0 0 1 -.515-4.329 14.438 14.438 0 0 1 -4.5 3.5 13.366 13.366 0 0 1 -6.251 1.437 11.764 11.764 0 0 1 -5.132-1.1 8.548 8.548 0 0 1 -3.677-3.33 10.219 10.219 0 0 1 -1.363-5.434 9.341 9.341 0 0 1 3.421-7.584q3.422-2.829 11.413-2.83a41.574 41.574 0 0 1 5.934.424v-.636q0-4.329-1.847-6.1a7.357 7.357 0 0 0 -5.3-1.771 20.729 20.729 0 0 0 -5.116.7 26.964 26.964 0 0 0 -4.783 1.664l-1.181-5.449a28.739 28.739 0 0 1 5.268-1.665 30.559 30.559 0 0 1 6.9-.757 18.072 18.072 0 0 1 7.205 1.287 9.449 9.449 0 0 1 4.632 4.42 18.056 18.056 0 0 1 1.665 8.431v12.987q0 2.029.243 6.146zm-4.48-6.055a11.965 11.965 0 0 0 3.814-2.785v-6.051a48.319 48.319 0 0 0 -5-.333q-4.632 0-6.4 1.5a5.016 5.016 0 0 0 -1.772 4.041 4.605 4.605 0 0 0 1.29 3.583 5.012 5.012 0 0 0 3.5 1.165 10.51 10.51 0 0 0 4.568-1.116z"/><path d="m345.266 105.163v-38.6l7.447-.606v37.872a4.708 4.708 0 0 0 .711 2.952 2.762 2.762 0 0 0 2.256.863 8.343 8.343 0 0 0 1.967-.334l.878 5.359a12.685 12.685 0 0 1 -2.587.681 17.528 17.528 0 0 1 -2.892.257q-7.782.002-7.78-8.444z"/><path d="m363.884 105.163v-38.6l7.447-.606v37.872a4.708 4.708 0 0 0 .711 2.952 2.765 2.765 0 0 0 2.256.863 8.358 8.358 0 0 0 1.968-.334l.878 5.359a12.714 12.714 0 0 1 -2.588.681 17.528 17.528 0 0 1 -2.892.257q-7.781.002-7.78-8.444z"/><path d="m407.772 97.625h-21.372q.514 10.263 9.779 10.263a20.773 20.773 0 0 0 4.708-.56 28.14 28.14 0 0 0 4.616-1.5l1.635 5.116a27.807 27.807 0 0 1 -12.322 2.664 17.979 17.979 0 0 1 -8.779-1.967 12.62 12.62 0 0 1 -5.373-5.662 20.133 20.133 0 0 1 -1.8-8.9 21.048 21.048 0 0 1 1.908-9.324 13.874 13.874 0 0 1 5.312-5.964 14.9 14.9 0 0 1 7.857-2.059 13.2 13.2 0 0 1 7.735 2.165 12.934 12.934 0 0 1 4.6 5.767 20.557 20.557 0 0 1 1.5 7.962zm-7.3-4.753a9.322 9.322 0 0 0 -1.968-5.858 6.006 6.006 0 0 0 -4.693-1.953 6.3 6.3 0 0 0 -4.737 1.968 10.436 10.436 0 0 0 -2.468 5.843z"/><path d="m413.426 88.543q0-2.694-.242-8.2h6.993q.181 1.362.348 3.255t.227 3.072a27.387 27.387 0 0 1 2.558-3.617 10.475 10.475 0 0 1 2.936-2.393 7.829 7.829 0 0 1 3.83-.923 10.614 10.614 0 0 1 2.967.364l-.939 6.478a8.263 8.263 0 0 0 -2.421-.333 7.941 7.941 0 0 0 -4.6 1.348 18.515 18.515 0 0 0 -4.208 4.434v20.972h-7.447z"/><path d="m437.241 126.369a18.216 18.216 0 0 1 -2.694-.65l1.362-5.449q.756.21 1.907.408a12.872 12.872 0 0 0 2.18.2q4.965 0 7.447-6.388l.485-1.211-12.049-32.94h8.021l6.055 18.406a59.506 59.506 0 0 1 1.907 7.235q.848-3.541 2-7.083l6.146-18.558h7.538l-12.019 33.089a33.958 33.958 0 0 1 -3.664 7.572 12.833 12.833 0 0 1 -4.647 4.269 13.878 13.878 0 0 1 -6.463 1.392 20.249 20.249 0 0 1 -3.512-.292z"/><path d="m155.975 27.379h13.325l-.375 3.219h-9.047v6.234h8.531v3.016h-8.531v6.906h9.531l-.325 3.246h-13.109z"/><path d="m178.49 38.457-7.031-11.078h4.441l4.766 8.141 5.016-8.141h4.312l-6.969 10.937 7.543 11.684h-4.5l-5.39-8.906-5.485 8.906h-4.312z"/><path d="m193.443 27.379h6.094q4.3 0 6.578 1.75a5.994 5.994 0 0 1 2.281 5.062 7.4 7.4 0 0 1 -1.023 3.93 6.738 6.738 0 0 1 -2.852 2.578 9.4 9.4 0 0 1 -4.2.9 16.305 16.305 0 0 1 -2.968-.313v8.714h-3.907zm9.8 10.1a4.091 4.091 0 0 0 1.25-3.195 3.472 3.472 0 0 0 -1.273-3.015 6.345 6.345 0 0 0 -3.742-.922h-2.128v8.031a15.459 15.459 0 0 0 2.25.234 5.243 5.243 0 0 0 3.64-1.132z"/><path d="m212.256 27.379h3.906v19.281h9.359l-.328 3.34h-12.937z"/><path d="m231.459 48.9a9.457 9.457 0 0 1 -3.8-3.993 12.963 12.963 0 0 1 -1.312-5.976 13.337 13.337 0 0 1 1.4-6.258 9.851 9.851 0 0 1 4.031-4.141 12.61 12.61 0 0 1 6.211-1.461 11.669 11.669 0 0 1 5.891 1.414 9.356 9.356 0 0 1 3.765 3.977 12.978 12.978 0 0 1 1.3 5.938 13.4 13.4 0 0 1 -1.414 6.328 9.9 9.9 0 0 1 -4.031 4.14 12.463 12.463 0 0 1 -6.148 1.453 11.661 11.661 0 0 1 -5.893-1.421zm10.125-2.774a6.667 6.667 0 0 0 2.453-3.031 11.281 11.281 0 0 0 .813-4.414 12.262 12.262 0 0 0 -.719-4.344 6.451 6.451 0 0 0 -2.3-3.039 6.8 6.8 0 0 0 -4.063-1.133 6.9 6.9 0 0 0 -4.031 1.149 7.032 7.032 0 0 0 -2.484 3.078 10.691 10.691 0 0 0 -.828 4.258 11.65 11.65 0 0 0 .781 4.39 6.677 6.677 0 0 0 2.394 3.06 6.78 6.78 0 0 0 3.984 1.125 7.014 7.014 0 0 0 4-1.104z"/><path d="m253.3 27.379h7.078a9.444 9.444 0 0 1 5.867 1.547 5.268 5.268 0 0 1 1.992 4.422 6.7 6.7 0 0 1 -.719 3.164 6.991 6.991 0 0 1 -1.781 2.226 7.924 7.924 0 0 1 -2.187 1.282l6.956 9.98h-4.531l-5.891-8.969h-2.875v8.969h-3.909zm6.125 10.7a5.471 5.471 0 0 0 2.515-.555 4.113 4.113 0 0 0 1.7-1.562 4.418 4.418 0 0 0 .61-2.336 2.883 2.883 0 0 0 -1.078-2.492 5.275 5.275 0 0 0 -3.141-.789h-2.828v7.734z"/><path d="m273.6 27.379h13.328l-.375 3.219h-9.047v6.234h8.531v3.016h-8.531v6.906h9.531l-.328 3.246h-13.109z"/><path d="m301.428 27.379h3.906v22.621h-3.906z"/><path d="m315.662 30.645h-7.016l.344-3.266h17.61l-.36 3.266h-6.672v19.355h-3.906z"/><path d="m343.553 48.9a9.457 9.457 0 0 1 -3.8-3.993 12.963 12.963 0 0 1 -1.313-5.976 13.337 13.337 0 0 1 1.4-6.258 9.84 9.84 0 0 1 4.031-4.141 12.61 12.61 0 0 1 6.211-1.461 11.672 11.672 0 0 1 5.891 1.414 9.362 9.362 0 0 1 3.765 3.977 12.991 12.991 0 0 1 1.3 5.938 13.414 13.414 0 0 1 -1.414 6.328 9.9 9.9 0 0 1 -4.031 4.14 12.467 12.467 0 0 1 -6.149 1.453 11.658 11.658 0 0 1 -5.891-1.421zm10.125-2.774a6.667 6.667 0 0 0 2.453-3.031 11.3 11.3 0 0 0 .812-4.414 12.285 12.285 0 0 0 -.718-4.344 6.457 6.457 0 0 0 -2.3-3.039 6.805 6.805 0 0 0 -4.063-1.133 6.9 6.9 0 0 0 -4.031 1.149 7.018 7.018 0 0 0 -2.484 3.078 10.673 10.673 0 0 0 -.828 4.258 11.63 11.63 0 0 0 .781 4.39 6.682 6.682 0 0 0 2.39 3.063 6.785 6.785 0 0 0 3.985 1.125 7.017 7.017 0 0 0 4.003-1.107z"/><path d="m365.4 27.379h4.484l11.184 17.531q-.139-2.5-.14-4.609v-12.922h3.625v22.621h-4.344l-11.359-17.809q.171 3.033.172 5.375v12.434h-3.622z"/></g><path d="m101.032 27.5h-41.544c-19.57 0-26.728 7.158-26.728 26.728v41.544c0 19.57 7.158 26.728 26.728 26.728h41.531c19.57 0 26.741-7.158 26.741-26.728v-41.544c0-19.57-7.16-26.728-26.728-26.728z" fill="#c8102e" fill-rule="evenodd"/><g fill="#fff"><path d="m51.573 75.008h2.519v12.421h-2.519v-5.044h-5.691v5.044h-2.52v-12.421h2.52v5.011h5.691zm14.2 7.11c0 2.019-1 3.1-2.823 3.1s-2.839-1.11-2.839-3.185v-7.018h-2.52v7.1c0 3.493 1.941 5.5 5.325 5.5 3.417 0 5.376-2.042 5.376-5.6v-7.007h-2.524zm29.125 1.431-2.82-8.541h-2.062l-2.816 8.541-2.744-8.535h-2.686l4.33 12.414h2.086l2.824-8.155 2.823 8.155h2.105l4.318-12.414h-2.613zm9.881-1.466h4.583v-2.261h-4.583v-2.542h6.653v-2.264h-9.14v12.405h9.38v-2.263h-6.893zm9.9 5.33h2.487v-12.4h-2.487zm-41.4-2.578-1.13 2.587h-2.584l5.472-12.414h2.223l5.45 12.414h-2.642l-1.116-2.587zm.938-2.239h3.81l-1.911-4.445z"/><path d="m80.26 59.194a15.831 15.831 0 0 1 -15.813-15.813h2.234a13.579 13.579 0 1 0 27.158 0h2.234a15.831 15.831 0 0 1 -15.813 15.813z"/></g></svg>