<svg width="1441" height="1280" viewBox="0 0 1441 1280" xmlns="http://www.w3.org/2000/svg">
    <path d="M-40.498 2242c13.713 0 27.426-9.142 36.568-18.284L1371.952 390.73c36.568-50.281 68.565-141.702 68.565-205.697v-612.518c0-41.14-22.855-95.992-50.281-123.418L919.419-1021.72C891.993-1049.145 837.141-1072 796.001-1072H-936.42c-13.713 0-22.855 9.142-22.855 22.855v525.67c0 13.712 9.142 22.854 22.855 22.854H754.862c63.995 0 114.276 50.282 114.276 114.276V66.188c0 41.139-18.284 100.562-45.71 132.56L-707.87 2210.003c-13.713 18.284-9.142 31.997 9.142 31.997h658.23z" fill="#FF0046" fill-rule="nonzero"/>
</svg>
