<svg xmlns="http://www.w3.org/2000/svg" width="120" height="36" viewBox="0 0 120 36">
    <defs>
        <linearGradient id="prut18d66a" x1="61.231%" x2="26.324%" y1="4.839%" y2="71.968%">
            <stop offset="0%" stop-color="#00A0FF"/>
            <stop offset=".657%" stop-color="#00A1FF"/>
            <stop offset="26.01%" stop-color="#00BEFF"/>
            <stop offset="51.22%" stop-color="#00D2FF"/>
            <stop offset="76.04%" stop-color="#00DFFF"/>
            <stop offset="100%" stop-color="#00E3FF"/>
        </linearGradient>
        <linearGradient id="hltvl7fiob" x1="107.728%" x2="-130.665%" y1="49.428%" y2="49.428%">
            <stop offset="0%" stop-color="#FFE000"/>
            <stop offset="40.87%" stop-color="#FFBD00"/>
            <stop offset="77.54%" stop-color="orange"/>
            <stop offset="100%" stop-color="#FF9C00"/>
        </linearGradient>
        <linearGradient id="6ltrtex4jc" x1="86.389%" x2="-49.888%" y1="30.83%" y2="136.004%">
            <stop offset="0%" stop-color="#FF3A44"/>
            <stop offset="100%" stop-color="#C31162"/>
        </linearGradient>
        <linearGradient id="asjskttidd" x1="-18.579%" x2="42.275%" y1="-11.682%" y2="35.064%">
            <stop offset="0%" stop-color="#32A071"/>
            <stop offset="6.85%" stop-color="#2DA771"/>
            <stop offset="47.62%" stop-color="#15CF74"/>
            <stop offset="80.09%" stop-color="#06E775"/>
            <stop offset="100%" stop-color="#00F076"/>
        </linearGradient>
    </defs>
    <g fill="none">
        <path fill="#000" d="M115.556 35.556H4.444C1.956 35.556 0 33.6 0 31.11V4.444C0 1.956 1.956 0 4.444 0h111.112C118.044 0 120 1.956 120 4.444v26.667c0 2.4-1.956 4.445-4.444 4.445z"/>
        <path fill="#A6A6A6" d="M115.556.711c2.044 0 3.733 1.689 3.733 3.733v26.667c0 2.045-1.689 3.733-3.733 3.733H4.444c-2.044 0-3.733-1.688-3.733-3.733V4.444C.711 2.4 2.4.711 4.444.711h111.112zm0-.711H4.444C1.956 0 0 1.956 0 4.444v26.667c0 2.489 1.956 4.445 4.444 4.445h111.112c2.488 0 4.444-1.956 4.444-4.445V4.444c0-2.4-1.956-4.444-4.444-4.444z"/>
        <g fill="#FFF" stroke="#FFF" stroke-width=".2">
            <path d="M5.689 3.733c0 .711-.178 1.334-.622 1.778-.534.533-1.156.8-1.956.8s-1.422-.267-1.955-.8c-.534-.533-.8-1.155-.8-1.955s.266-1.423.8-1.956C1.689 1.067 2.31.8 3.11.8c.356 0 .711.089 1.067.267.355.177.622.355.8.622l-.445.444c-.355-.444-.8-.622-1.422-.622-.533 0-1.067.178-1.422.622-.445.356-.622.89-.622 1.511 0 .623.177 1.156.622 1.512.444.355.889.622 1.422.622.622 0 1.067-.178 1.511-.622.267-.267.445-.623.445-1.067H3.11v-.622H5.69v.266zM9.778 1.511L7.378 1.511 7.378 3.2 9.6 3.2 9.6 3.822 7.378 3.822 7.378 5.511 9.778 5.511 9.778 6.222 6.667 6.222 6.667.889 9.778.889zM12.711 6.222L12 6.222 12 1.511 10.489 1.511 10.489.889 14.222.889 14.222 1.511 12.711 1.511zM16.8 6.222L16.8.889 17.511.889 17.511 6.222zM20.533 6.222L19.822 6.222 19.822 1.511 18.311 1.511 18.311.889 21.956.889 21.956 1.511 20.444 1.511 20.444 6.222zM28.978 5.511c-.534.533-1.156.8-1.956.8s-1.422-.267-1.955-.8c-.534-.533-.8-1.155-.8-1.955s.266-1.423.8-1.956c.533-.533 1.155-.8 1.955-.8s1.422.267 1.956.8c.533.533.8 1.156.8 1.956s-.267 1.422-.8 1.955zM25.6 5.067c.356.355.889.622 1.422.622.534 0 1.067-.178 1.422-.622.356-.356.623-.89.623-1.511 0-.623-.178-1.156-.623-1.512-.355-.355-.888-.622-1.422-.622-.533 0-1.066.178-1.422.622-.356.356-.622.89-.622 1.512s.178 1.155.622 1.51zM30.756 6.222L30.756.889 31.556.889 34.133 5.067 34.133 5.067 34.133 4 34.133.889 34.844.889 34.844 6.222 34.133 6.222 31.378 1.867 31.378 1.867 31.378 2.933 31.378 6.222z" transform="translate(36.444 5.333)"/>
        </g>
        <path fill="#FFF" d="M60.533 19.378c-2.133 0-3.822 1.6-3.822 3.822 0 2.133 1.689 3.822 3.822 3.822 2.134 0 3.823-1.6 3.823-3.822 0-2.311-1.69-3.822-3.823-3.822zm0 6.044c-1.155 0-2.133-.978-2.133-2.31 0-1.334.978-2.312 2.133-2.312 1.156 0 2.134.889 2.134 2.311 0 1.333-.978 2.311-2.134 2.311zm-8.266-6.044c-2.134 0-3.823 1.6-3.823 3.822 0 2.133 1.69 3.822 3.823 3.822s3.822-1.6 3.822-3.822c0-2.311-1.689-3.822-3.822-3.822zm0 6.044c-1.156 0-2.134-.978-2.134-2.31 0-1.334.978-2.312 2.134-2.312 1.155 0 2.133.889 2.133 2.311 0 1.333-.978 2.311-2.133 2.311zM42.4 20.533v1.6h3.822c-.089.89-.444 1.6-.889 2.045-.533.533-1.422 1.155-2.933 1.155-2.4 0-4.178-1.866-4.178-4.266S40.09 16.8 42.4 16.8c1.244 0 2.222.533 2.933 1.156L46.49 16.8c-.978-.889-2.222-1.6-4-1.6-3.2 0-5.956 2.667-5.956 5.867s2.756 5.866 5.956 5.866c1.778 0 3.022-.533 4.089-1.689C47.644 24.178 48 22.667 48 21.511c0-.355 0-.711-.089-.978H42.4zm40.356 1.245c-.356-.89-1.245-2.4-3.2-2.4C77.6 19.378 76 20.888 76 23.2c0 2.133 1.6 3.822 3.733 3.822 1.69 0 2.756-1.066 3.111-1.689l-1.244-.889c-.444.623-.978 1.067-1.867 1.067s-1.422-.355-1.866-1.155l5.066-2.134-.177-.444zM77.6 23.022c0-1.422 1.156-2.222 1.956-2.222.622 0 1.244.356 1.422.8L77.6 23.022zm-4.178 3.645h1.69V15.556h-1.69v11.11zm-2.666-6.49c-.445-.444-1.156-.888-2.045-.888-1.867 0-3.644 1.689-3.644 3.822s1.689 3.733 3.644 3.733c.889 0 1.6-.444 1.956-.888h.089v.533c0 1.422-.8 2.222-2.045 2.222-.978 0-1.689-.711-1.867-1.333L65.422 28c.445.978 1.511 2.222 3.378 2.222 1.956 0 3.556-1.155 3.556-3.91v-6.756h-1.6v.622zM68.8 25.423c-1.156 0-2.133-.978-2.133-2.31 0-1.334.977-2.312 2.133-2.312 1.156 0 2.044.978 2.044 2.311s-.888 2.311-2.044 2.311zm21.689-9.866h-4v11.11h1.689V22.49h2.31c1.868 0 3.645-1.333 3.645-3.467 0-2.133-1.777-3.466-3.644-3.466zm.089 5.333h-2.4v-3.822h2.4c1.244 0 1.955 1.066 1.955 1.866-.089.978-.8 1.956-1.955 1.956zm10.222-1.6c-1.244 0-2.489.533-2.933 1.689l1.51.622c.356-.622.89-.8 1.512-.8.889 0 1.689.533 1.778 1.422v.09c-.267-.179-.978-.445-1.69-.445-1.6 0-3.2.889-3.2 2.489 0 1.51 1.334 2.488 2.756 2.488 1.156 0 1.69-.533 2.134-1.066h.089v.889h1.6V22.4c-.178-1.956-1.69-3.111-3.556-3.111zm-.178 6.133c-.533 0-1.333-.266-1.333-.978 0-.888.978-1.155 1.778-1.155.71 0 1.066.178 1.51.355-.177 1.067-1.066 1.778-1.955 1.778zm9.334-5.866l-1.867 4.8H108l-1.956-4.8h-1.777l2.933 6.755-1.689 3.733h1.689l4.533-10.488h-1.777zm-14.934 7.11h1.69v-11.11h-1.69v11.11z"/>
        <g>
            <path fill="url(#prut18d66a)" d="M1.244.444C.978.711.8 1.156.8 1.69v19.644c0 .534.178.978.444 1.245l.09.089 11.022-11.023v-.178L1.244.445z" transform="translate(8 6.222)"/>
            <path fill="url(#hltvl7fiob)" d="M16 15.378l-3.644-3.645v-.267L16 7.823l.089.09 4.355 2.488c1.245.711 1.245 1.867 0 2.578L16 15.378z" transform="translate(8 6.222)"/>
            <path fill="url(#6ltrtex4jc)" d="M16.089 15.289l-3.733-3.733-11.112 11.11c.445.445 1.067.445 1.867.09l12.978-7.467" transform="translate(8 6.222)"/>
            <path fill="url(#asjskttidd)" d="M16.089 7.822L3.11.444C2.311 0 1.69.09 1.244.534l11.112 11.022 3.733-3.734z" transform="translate(8 6.222)"/>
            <g fill="#000">
                <path d="M15.111.089L2.222 7.378c-.71.444-1.333.355-1.778 0l-.088.089.088.089c.445.355 1.067.444 1.778 0L15.112.089z" opacity=".2" transform="translate(8 6.222) translate(.889 15.111)"/>
                <path d="M.356 7.378C.089 7.11 0 6.667 0 6.133v.09c0 .533.178.977.444 1.244v-.09H.356z" opacity=".12" transform="translate(8 6.222) translate(.889 15.111)"/>
            </g>
            <path fill="#000" d="M20.444 12.711L16 15.2l.089.089 4.355-2.489c.623-.356.89-.8.89-1.244 0 .444-.356.8-.89 1.155z" opacity=".12" transform="translate(8 6.222)"/>
            <path fill="#FFF" d="M3.111.533L20.444 10.4c.534.356.89.711.89 1.156 0-.445-.267-.89-.89-1.245L3.111.444C1.867-.266.89.356.89 1.778v.089C.889.444 1.867-.178 3.11.533z" opacity=".25" transform="translate(8 6.222)"/>
        </g>
    </g>
</svg>
